<?xml version="1.0" encoding="UTF-8"?>
<svg version="1.1" xmlns="http://www.w3.org/2000/svg" width="319" height="319">
<path d="M0 0 C1.09054688 0.2784375 2.18109375 0.556875 3.3046875 0.84375 C4.20316406 1.09769531 5.10164062 1.35164063 6.02734375 1.61328125 C14.14660468 2.66888383 21.98868814 0.73362398 29.84399414 -1.19189453 C63.75347693 -9.41628972 98.28109923 -4.50772939 128.27685547 13.74072266 C134.10885917 17.57028434 139.24486723 22.1850263 144.2421875 27.03125 C145.15742188 27.91683594 146.07265625 28.80242187 147.015625 29.71484375 C160.83648563 44.02475022 168.66405982 61.26582177 168.390625 81.3359375 C167.88484307 90.51987253 164.23395543 99.60301693 157.4921875 105.96875 C153.16499827 109.45682649 147.90217071 112.03125 142.2421875 112.03125 C142.5721875 113.206875 142.9021875 114.3825 143.2421875 115.59375 C145.78957862 127.23491949 144.16575516 139.02738918 141.7421875 150.53125 C141.60023956 151.2256015 141.45829163 151.919953 141.31204224 152.63534546 C137.92768716 169.10432782 133.80680564 185.41546521 129.71212769 201.71932983 C129.18383422 203.82720473 128.65918059 205.93595781 128.13525391 208.04492188 C127.29272066 211.43074424 126.43680019 214.81293754 125.57127571 218.19295311 C125.10117392 220.03814456 124.64160055 221.88600864 124.18247986 223.73396301 C121.02569085 235.9207748 117.47436657 249.3228034 106.1953125 256.296875 C99.30849268 259.97329761 92.90696349 260.1898772 85.23095703 260.23657227 C83.71913597 260.25142166 83.71913597 260.25142166 82.17677307 260.26657104 C78.82620594 260.29825433 75.47562596 260.32304089 72.125 260.34765625 C69.7560902 260.36828944 67.38718355 260.38928724 65.01828003 260.41062927 C60.01969327 260.45466822 55.02109407 260.4955255 50.02246094 260.53393555 C43.7669602 260.58206626 37.51152724 260.63591608 31.25609207 260.69185829 C19.11250192 260.80022314 6.96892735 260.89157489 -5.1749382 260.96291542 C-12.15994214 261.00474994 -19.14457954 261.06199346 -26.12935448 261.13213825 C-30.46780517 261.17272971 -34.80627134 261.20052865 -39.14484024 261.22495842 C-41.15315229 261.23883755 -43.16143643 261.25792453 -45.1696434 261.28271675 C-71.43381061 261.5992609 -71.43381061 261.5992609 -81.7578125 252.03125 C-91.79229828 242.23012436 -93.96563941 226.31259252 -97.1953125 213.21875 C-97.68155944 211.27394593 -98.16870699 209.32936683 -98.65673828 207.38500977 C-99.37705841 204.51472408 -100.09675901 201.64430434 -100.81274414 198.77293396 C-102.28521582 192.8736176 -103.81932223 186.99484384 -105.41381836 181.12719727 C-111.35930716 159.14403 -115.87798271 137.79314746 -112.7578125 115.03125 C-113.386875 114.8353125 -114.0159375 114.639375 -114.6640625 114.4375 C-123.73905041 111.26672109 -129.2807546 106.33287931 -133.6953125 97.78125 C-138.86018264 86.78620441 -138.47734646 71.42142044 -135.1953125 59.90625 C-126.58626539 36.73734075 -106.51424334 16.9228737 -84.26953125 6.46875 C-55.52554458 -5.2974203 -30.06807914 -7.75143828 0 0 Z " fill="#FC9201" transform="translate(143.7578125,35.96875)"/>
<path d="M0 0 C1.09054688 0.2784375 2.18109375 0.556875 3.3046875 0.84375 C4.20316406 1.09769531 5.10164062 1.35164063 6.02734375 1.61328125 C14.14660468 2.66888383 21.98868814 0.73362398 29.84399414 -1.19189453 C63.75347693 -9.41628972 98.28109923 -4.50772939 128.27685547 13.74072266 C134.10885917 17.57028434 139.24486723 22.1850263 144.2421875 27.03125 C145.15742188 27.91683594 146.07265625 28.80242187 147.015625 29.71484375 C160.83648563 44.02475022 168.66405982 61.26582177 168.390625 81.3359375 C167.88484307 90.51987253 164.23395543 99.60301693 157.4921875 105.96875 C152.62439228 109.85380166 147.54589792 112.26414865 141.25 111.8203125 C137.83714657 110.92499251 136.33092744 109.7671079 133.7421875 107.40625 C121.6291451 97.24222344 106.11759806 92.41185025 90.9296875 88.96875 C89.80755859 88.71198486 88.68542969 88.45521973 87.52929688 88.19067383 C76.84252059 85.81809497 66.11589215 84.23766619 55.2421875 83.03125 C54.49508514 82.94392105 53.74798279 82.8565921 52.97824097 82.76661682 C46.59922022 82.06417184 40.28955394 81.85647315 33.875 81.828125 C32.81047104 81.82102005 31.74594208 81.8139151 30.64915466 81.80659485 C-7.97545685 81.60750344 -46.0935471 82.92256344 -81.9453125 98.96875 C-82.71294922 99.30326172 -83.48058594 99.63777344 -84.27148438 99.98242188 C-87.76219672 101.53484664 -91.03211266 103.11570686 -94.18359375 105.28515625 C-96.7578125 107.03125 -96.7578125 107.03125 -98.7578125 107.03125 C-99.2528125 108.51625 -99.2528125 108.51625 -99.7578125 110.03125 C-106.3010084 113.63668448 -112.17642556 113.92149329 -119.3203125 111.96875 C-127.36441468 108.97817157 -131.2503001 102.85333732 -134.8125 95.36328125 C-139.3212047 84.24056758 -138.17256428 67.91871355 -134.08203125 56.91015625 C-123.21046999 33.27493311 -102.86753556 13.44331965 -78.44775391 4.15234375 C-51.35856235 -5.78330449 -27.91803004 -7.19716367 0 0 Z " fill="#FDEDC2" transform="translate(143.7578125,35.96875)"/>
<path d="M0 0 C6.69642188 1.23933778 12.18836934 3.17517296 18.1875 6.375 C19.42197876 7.03157593 19.42197876 7.03157593 20.68139648 7.70141602 C28.73214473 12.14781839 35.4507047 17.58271261 42 24 C43.36898437 25.32644531 43.36898437 25.32644531 44.765625 26.6796875 C58.59738574 40.9781641 66.42180741 58.23933623 66.1484375 78.3046875 C65.64265557 87.48862253 61.99176793 96.57176693 55.25 102.9375 C50.38220478 106.82255166 45.30371042 109.23289865 39.0078125 108.7890625 C35.59495907 107.89374251 34.08873994 106.7358579 31.5 104.375 C19.3869576 94.21097344 3.87541056 89.38060025 -11.3125 85.9375 C-12.43462891 85.68073486 -13.55675781 85.42396973 -14.71289062 85.15942383 C-25.39966691 82.78684497 -36.12629535 81.20641619 -47 80 C-47.74710236 79.91267105 -48.49420471 79.8253421 -49.26394653 79.73536682 C-55.64296728 79.03292184 -61.95263356 78.82522315 -68.3671875 78.796875 C-69.43171646 78.78977005 -70.49624542 78.7826651 -71.59303284 78.77534485 C-110.21764435 78.57625344 -148.3357346 79.89131344 -184.1875 95.9375 C-184.95513672 96.27201172 -185.72277344 96.60652344 -186.51367188 96.95117188 C-190.00438422 98.50359664 -193.27430016 100.08445686 -196.42578125 102.25390625 C-199 104 -199 104 -201 104 C-201.495 105.485 -201.495 105.485 -202 107 C-208.5431959 110.60543448 -214.41861306 110.89024329 -221.5625 108.9375 C-229.60660218 105.94692157 -233.4924876 99.82208732 -237.0546875 92.33203125 C-241.6754735 80.9328195 -240.32223687 64.92337318 -236.15625 53.5859375 C-234.64578345 50.20779948 -233.01980092 47.10183713 -231 44 C-229.49017813 47.01964375 -230.54519273 49.13849067 -231.3125 52.375 C-231.57675781 53.51710937 -231.84101563 54.65921875 -232.11328125 55.8359375 C-233 59 -233 59 -234.0859375 60.875 C-235.57225443 64.33036927 -235.33831154 67.92483929 -235.3125 71.625 C-235.30831055 72.43098633 -235.30412109 73.23697266 -235.29980469 74.06738281 C-235.13614838 82.7133106 -233.5811311 90.19799647 -228 97 C-227.01 97.33 -226.02 97.66 -225 98 C-225 98.66 -225 99.32 -225 100 C-216.2431077 100.84215845 -216.2431077 100.84215845 -208.5625 97.1875 C-207.98628906 96.66542969 -207.41007812 96.14335937 -206.81640625 95.60546875 C-203.18064407 92.39192411 -198.73566301 90.26354528 -194.5 87.9375 C-193.5821875 87.43089844 -192.664375 86.92429687 -191.71875 86.40234375 C-189.18884101 85.09740506 -186.6435022 84.04716196 -184 83 C-183.67 82.67 -183.34 82.34 -183 82 C-181.42393803 81.65268264 -179.83862922 81.34685523 -178.25 81.0625 C-174.60500714 80.36452264 -171.41318999 79.47597405 -168 78 C-162.5900175 76.39908681 -157.14078969 74.94545028 -151.6875 73.5 C-150.50124023 73.18095703 -150.50124023 73.18095703 -149.29101562 72.85546875 C-126.87329089 66.91868706 -104.33141445 65.70056191 -81.25 65.625 C-79.78151108 65.61348907 -79.78151108 65.61348907 -78.28335571 65.60174561 C-58.87045204 65.48028929 -39.9064657 67.34495007 -21.0625 72.125 C-14.37486882 73.77775997 -7.8630242 75.32278221 -1 76 C-1 76.66 -1 77.32 -1 78 C-0.39414063 78.09796875 0.21171875 78.1959375 0.8359375 78.296875 C8.40398462 79.64748033 15.55612591 81.70408394 22 86 C22.9075 86.28875 23.815 86.5775 24.75 86.875 C28.52651677 88.18225581 31.57756499 89.946539 35 92 C35 92.66 35 93.32 35 94 C40.39572217 95.95164419 45.38974678 96.70250047 51 95 C51.66 94.01 52.32 93.02 53 92 C53.99 92 54.98 92 56 92 C56 91.34 56 90.68 56 90 C56.66 90 57.32 90 58 90 C61.37840078 77.45165423 61.40752063 63.31275257 57 51 C56.34 50.67 55.68 50.34 55 50 C54.7525 49.319375 54.505 48.63875 54.25 47.9375 C52.76092081 44.43816391 50.69672307 41.82913364 48.33984375 38.8671875 C47 37 47 37 46 34 C45.05125 33.54625 44.1025 33.0925 43.125 32.625 C39.57577535 30.77940318 38.97395003 29.34713266 37 26 C34.42900598 24.65310085 34.42900598 24.65310085 32 24 C32.33 23.34 32.66 22.68 33 22 C32.34 21.67 31.68 21.34 31 21 C31 20.34 31 19.68 31 19 C29.68 18.67 28.36 18.34 27 18 C26.67 16.68 26.34 15.36 26 14 C25.34 14 24.68 14 24 14 C22.99201548 13.00804879 21.99309558 12.00685707 21 11 C19.25538877 9.90845905 19.25538877 9.90845905 17.34765625 8.9921875 C16.65349609 8.64542969 15.95933594 8.29867187 15.24414062 7.94140625 C14.52419922 7.58949219 13.80425781 7.23757812 13.0625 6.875 C12.34642578 6.51535156 11.63035156 6.15570313 10.89257812 5.78515625 C6.98483045 3.81310086 6.98483045 3.81310086 2.82592773 2.51611328 C2.22337158 2.3457959 1.62081543 2.17547852 1 2 C0.67 1.34 0.34 0.68 0 0 Z " fill="#F8CF8D" transform="translate(246,39)"/>
<path d="M0 0 C0.99 0.495 0.99 0.495 2 1 C1.50719787 9.33471503 -0.33242036 17.19633012 -2.38671875 25.265625 C-2.7299304 26.63019628 -3.07284535 27.99484222 -3.41548157 29.35955811 C-4.13264602 32.20826615 -4.85537746 35.05549156 -5.58178711 37.90185547 C-6.50098395 41.50665814 -7.40312062 45.11548071 -8.30060101 48.72574234 C-9.00379641 51.54380458 -9.71783765 54.35904003 -10.43476295 57.17363739 C-10.93212987 59.13571072 -11.41945491 61.10032112 -11.90641785 63.06500244 C-18.65064162 89.21909902 -18.65064162 89.21909902 -30.046875 96.265625 C-36.93369482 99.94204761 -43.33522401 100.1586272 -51.01123047 100.20532227 C-52.52305153 100.22017166 -52.52305153 100.22017166 -54.06541443 100.23532104 C-57.41598156 100.26700433 -60.76656154 100.29179089 -64.1171875 100.31640625 C-66.4860973 100.33703944 -68.85500395 100.35803724 -71.22390747 100.37937927 C-76.22249423 100.42341822 -81.22109343 100.4642755 -86.21972656 100.50268555 C-92.4752273 100.55081626 -98.73066026 100.60466608 -104.98609543 100.66060829 C-117.12968558 100.76897314 -129.27326015 100.86032489 -141.4171257 100.93166542 C-148.40212964 100.97349994 -155.38676704 101.03074346 -162.37154198 101.10088825 C-166.70999267 101.14147971 -171.04845884 101.16927865 -175.38702774 101.19370842 C-177.39533979 101.20758755 -179.40362393 101.22667453 -181.4118309 101.25146675 C-207.75746167 101.56899273 -207.75746167 101.56899273 -218 92 C-221.27035676 88.77042076 -223.86689227 85.79187846 -224 81 C-223.01 80.01 -223.01 80.01 -222 79 C-221.7525 79.94875 -221.505 80.8975 -221.25 81.875 C-220.338822 85.08838835 -220.338822 85.08838835 -217.9375 86.1875 C-217.298125 86.455625 -216.65875 86.72375 -216 87 C-215.67 87.99 -215.34 88.98 -215 90 C-202.03027702 98.23078574 -188.99121314 98.20346903 -174.10498047 97.4621582 C-164.0444548 96.98054486 -154.00715615 96.87781468 -143.9375 96.875 C-142.77078766 96.87152557 -142.77078766 96.87152557 -141.58050537 96.86798096 C-133.64292401 96.846776 -125.88899626 97.02828647 -118 98 C-115.38401948 97.89608048 -115.38401948 97.89608048 -113.1875 97.5 C-110.92369468 97.13713139 -109.37148451 96.9005783 -107.14819336 97.49560547 C-104.83321224 98.03916167 -102.95624102 98.04233775 -100.5859375 97.9140625 C-99.74160156 97.87023437 -98.89726562 97.82640625 -98.02734375 97.78125 C-97.15207031 97.7296875 -96.27679688 97.678125 -95.375 97.625 C-94.52292969 97.58117187 -93.67085937 97.53734375 -92.79296875 97.4921875 C-88.6435965 97.26620051 -84.54809364 96.94856203 -80.42578125 96.42578125 C-72.17155714 95.56083704 -63.77931009 96.28786638 -55.50512695 96.66870117 C-53.26021352 96.76936243 -51.01507256 96.85608211 -48.76953125 96.94140625 C-48.0933223 96.97673965 -47.41711334 97.01207306 -46.72041321 97.04847717 C-42.12055787 97.21460521 -38.33365113 96.53170103 -34 95 C-32.9805881 94.01979625 -31.97753644 93.02196992 -31 92 C-28.3125 91.3125 -28.3125 91.3125 -26 91 C-25.8453125 89.8553125 -25.8453125 89.8553125 -25.6875 88.6875 C-24.9309017 85.72988846 -24.18227175 85.00769001 -22 83 C-20.29955827 80.35486841 -19.93914485 78.55880013 -19.5 75.375 C-19 72 -19 72 -17 70 C-15.54929981 65.16433271 -14.74592038 61.08159232 -15 56 C-14.34 56 -13.68 56 -13 56 C-13.33 54.68 -13.66 53.36 -14 52 C-13.34 51.67 -12.68 51.34 -12 51 C-11.41647089 48.19420938 -11.41647089 48.19420938 -11.0625 44.875 C-10.06860207 37.59171598 -10.06860207 37.59171598 -8.375 34.125 C-6.79509581 30.53430865 -6.76238825 27.88099189 -7 24 C-6.34 24 -5.68 24 -5 24 C-4.34 18.06 -3.68 12.12 -3 6 C-2.34 6 -1.68 6 -1 6 C-0.67 4.02 -0.34 2.04 0 0 Z " fill="#E07813" transform="translate(280,196)"/>
<path d="M0 0 C5.30629283 1.76876428 9.31779521 5.08568643 12 10 C13.02661794 14.8453256 12.63732053 19.3885524 10.5 23.875 C7.89121163 27.76062493 4.41563553 29.65367193 0 31 C-3.85560577 31.62484955 -7.03570255 31.4036594 -10.6875 29.875 C-14.10000245 27.10810612 -17.01704173 23.96591654 -19 20 C-19.62944431 13.91537168 -18.71364911 10.67169578 -15.38671875 5.56640625 C-14 4 -14 4 -11 3 C-11 2.34 -11 1.68 -11 1 C-7.5366128 -0.7316936 -3.79343523 -0.34018962 0 0 Z " fill="#7D320A" transform="translate(209,200)"/>
<path d="M0 0 C4.98835474 2.59093425 7.96771842 5.94295137 9.734375 11.38671875 C10.69260811 16.12832051 10.07996347 19.05172701 7.5625 23.19140625 C4.11668412 27.74083598 0.76704216 29.75532996 -4.94921875 30.62109375 C-10.12401854 30.95622364 -13.03512151 29.58351383 -16.9375 26.31640625 C-20.73339717 21.99693705 -21.23350483 18.10040485 -21.15234375 12.52734375 C-20.6285857 7.13739724 -16.79018296 3.78382091 -12.9375 0.31640625 C-8.58499493 -1.13442877 -4.35636245 -1.53702304 0 0 Z " fill="#7B2B03" transform="translate(115.9375,200.68359375)"/>
<path d="M0 0 C1.09054688 0.2784375 2.18109375 0.556875 3.3046875 0.84375 C4.20316406 1.09769531 5.10164062 1.35164063 6.02734375 1.61328125 C14.14660468 2.66888383 21.98868814 0.73362398 29.84399414 -1.19189453 C54.89901783 -7.26873202 77.96625571 -6.37972768 102.2421875 2.03125 C102.2421875 2.36125 102.2421875 2.69125 102.2421875 3.03125 C99.9321875 3.03125 97.6221875 3.03125 95.2421875 3.03125 C95.2421875 2.37125 95.2421875 1.71125 95.2421875 1.03125 C94.50355469 1.05445313 93.76492187 1.07765625 93.00390625 1.1015625 C87.89022762 1.1925301 83.12272914 1.13667288 78.1171875 0.03125 C62.82786926 -3.05305051 46.83469861 -0.60979031 31.78271484 2.60400391 C17.5592492 5.62158778 4.55059304 6.01527927 -9.63427734 2.2722168 C-18.27505815 0.00835736 -26.415502 -0.42228336 -35.3203125 -0.34375 C-36.63966797 -0.35535156 -37.95902344 -0.36695313 -39.31835938 -0.37890625 C-49.48605673 -0.34869021 -58.35498452 1.17036776 -67.7578125 5.03125 C-70.02279012 5.79515476 -72.29692115 6.52379071 -74.57421875 7.25 C-76.7735317 7.98117041 -76.7735317 7.98117041 -78.78515625 9.0859375 C-80.85650601 10.07854471 -82.49252978 10.35592843 -84.7578125 10.65625 C-91.77050095 12.08907505 -98.4995547 16.72139083 -103.484375 21.78515625 C-104.7578125 23.03125 -104.7578125 23.03125 -106.7578125 23.03125 C-106.7578125 23.69125 -106.7578125 24.35125 -106.7578125 25.03125 C-108.26171875 26.4765625 -108.26171875 26.4765625 -110.3203125 28.15625 C-116.81567863 33.68763953 -121.93852673 40.02137979 -126.7578125 47.03125 C-127.0878125 46.37125 -127.4178125 45.71125 -127.7578125 45.03125 C-108.89664872 18.16838037 -83.81088577 2.99192784 -51.6953125 -3.90625 C-33.88953777 -6.78686067 -17.31980182 -4.4649801 0 0 Z " fill="#E5BE6B" transform="translate(143.7578125,35.96875)"/>
<path d="M0 0 C1.02899414 0.17160645 2.05798828 0.34321289 3.11816406 0.52001953 C26.16302923 4.4141911 49.31558885 9.85336374 67 26 C67.69351563 26.30808594 68.38703125 26.61617187 69.1015625 26.93359375 C71 28 71 28 72.25 31.6875 C74.88281345 47.00129564 71.47573685 61.11903941 68 76 C67.34 75.67 66.68 75.34 66 75 C66.144375 74.030625 66.28875 73.06125 66.4375 72.0625 C67.06047442 67.71947831 67.53507859 63.36234766 68 59 C68.66 59 69.32 59 70 59 C69.98839844 58.26394531 69.97679687 57.52789062 69.96484375 56.76953125 C69.95582031 55.79371094 69.94679688 54.81789062 69.9375 53.8125 C69.92589844 52.84957031 69.91429687 51.88664062 69.90234375 50.89453125 C69.99531981 48.1387207 70.43933802 45.69117752 71 43 C70.77271059 36.9768307 68.8783425 32.53953575 65 28 C62.72479694 26.29726739 60.59636836 25.22470206 58 24 C57.34 23.67 56.68 23.34 56 23 C56 22.01 56 21.02 56 20 C54.88625 19.896875 53.7725 19.79375 52.625 19.6875 C51.42875 19.460625 50.2325 19.23375 49 19 C48.01 17.515 48.01 17.515 47 16 C46.34 16.33 45.68 16.66 45 17 C44.67 16.34 44.34 15.68 44 15 C41.68494555 14.42123639 39.34628373 13.93519779 37 13.5 C34.65371627 13.06480221 32.31505445 12.57876361 30 12 C29.67 11.34 29.34 10.68 29 10 C26.85284027 9.38105941 26.85284027 9.38105941 24.3125 9 C19.71005842 8.15904396 15.48861057 6.91711176 11.09718323 5.29876709 C5.43440872 3.29857837 -0.08840171 2.11732587 -6.03515625 1.328125 C-6.98197769 1.20157532 -7.92879913 1.07502563 -8.90431213 0.94464111 C-19.04651765 -0.2949174 -29.13861168 -0.3847955 -39.34350586 -0.28125 C-42.46024566 -0.24977026 -45.57647519 -0.24022053 -48.69335938 -0.234375 C-66.27162373 -1.32133455 -66.27162373 -1.32133455 -83 2 C-84.94272971 2 -86.88555376 1.99747012 -88.828125 1.97265625 C-94.32431588 1.83492589 -94.32431588 1.83492589 -99 4 C-101.67058851 4.14115161 -104.32432238 4.04247107 -107 4 C-107.33 4.66 -107.66 5.32 -108 6 C-109.6875 6.30859375 -109.6875 6.30859375 -112 6.4375 C-116.97547993 6.84013999 -121.83749926 7.57685787 -126.75 8.4375 C-127.47058594 8.55988037 -128.19117188 8.68226074 -128.93359375 8.80834961 C-133.11126871 9.55015719 -136.97992593 10.61198016 -141 12 C-143.32694964 12.37531446 -145.65976685 12.71917202 -148 13 C-147 11 -147 11 -144.8125 10.25390625 C-143.884375 10.02574219 -142.95625 9.79757813 -142 9.5625 C-138.51067311 8.69512471 -135.10816149 7.71865192 -131.70703125 6.55859375 C-91.42984245 -7.01973278 -41.5644647 -7.41447552 0 0 Z " fill="#E88A18" transform="translate(215,120)"/>
<path d="M0 0 C6.69642188 1.23933778 12.18836934 3.17517296 18.1875 6.375 C19.01048584 6.81271729 19.83347168 7.25043457 20.68139648 7.70141602 C28.73214473 12.14781839 35.4507047 17.58271261 42 24 C42.91265625 24.88429688 43.8253125 25.76859375 44.765625 26.6796875 C58.59738574 40.9781641 66.42180741 58.23933623 66.1484375 78.3046875 C65.64265557 87.48862253 61.99176793 96.57176693 55.25 102.9375 C50.15330716 107.00523787 44.9943742 109.2626644 38.4375 108.6875 C37.633125 108.460625 36.82875 108.23375 36 108 C36 107.67 36 107.34 36 107 C37.27875 106.95875 38.5575 106.9175 39.875 106.875 C45.7209627 106.22750413 50.46800366 103.69758546 55 100 C56.68545253 97.55906476 56.68545253 97.55906476 58 95 C58.37382812 94.3915625 58.74765625 93.783125 59.1328125 93.15625 C64.32511247 84.48878863 64.61699678 72.52047022 62.50488281 62.69726562 C61.28424696 58.35509788 59.72193464 54.16954174 58 50 C57.34 50 56.68 50 56 50 C54.37890625 47.76953125 54.37890625 47.76953125 52.5625 44.8125 C51.96566406 43.84957031 51.36882812 42.88664062 50.75390625 41.89453125 C49.62248747 40.02731228 48.52329765 38.13999499 47.46484375 36.23046875 C46.09092362 33.73163698 46.09092362 33.73163698 43 32.5 C39.51220708 30.75610354 38.92897085 29.27086362 37 26 C34.42900598 24.65310085 34.42900598 24.65310085 32 24 C32.33 23.34 32.66 22.68 33 22 C32.34 21.67 31.68 21.34 31 21 C31 20.34 31 19.68 31 19 C29.68 18.67 28.36 18.34 27 18 C26.67 16.68 26.34 15.36 26 14 C25.34 14 24.68 14 24 14 C22.99201548 13.00804879 21.99309558 12.00685707 21 11 C19.25538877 9.90845905 19.25538877 9.90845905 17.34765625 8.9921875 C16.65349609 8.64542969 15.95933594 8.29867187 15.24414062 7.94140625 C14.52419922 7.58949219 13.80425781 7.23757812 13.0625 6.875 C12.34642578 6.51535156 11.63035156 6.15570313 10.89257812 5.78515625 C6.98483045 3.81310086 6.98483045 3.81310086 2.82592773 2.51611328 C1.92209351 2.26063721 1.92209351 2.26063721 1 2 C0.67 1.34 0.34 0.68 0 0 Z " fill="#FBDEA2" transform="translate(246,39)"/>
<path d="M0 0 C4.33614219 2.2521773 6.87886137 4.86514289 9.0625 9.31640625 C9.75041909 12.3159358 10.2473319 15.23587453 10.0625 18.31640625 C9.4025 18.97640625 8.7425 19.63640625 8.0625 20.31640625 C7.5675 15.36640625 7.5675 15.36640625 7.0625 10.31640625 C5.7425 10.31640625 4.4225 10.31640625 3.0625 10.31640625 C3.0625 10.97640625 3.0625 11.63640625 3.0625 12.31640625 C0.21089609 13.13074768 -2.30376131 13.43521867 -5.265625 13.4140625 C-6.06484375 13.41083984 -6.8640625 13.40761719 -7.6875 13.40429688 C-8.5125 13.39591797 -9.3375 13.38753906 -10.1875 13.37890625 C-11.02796875 13.37439453 -11.8684375 13.36988281 -12.734375 13.36523438 C-14.80211401 13.35348586 -16.86981624 13.33555147 -18.9375 13.31640625 C-19.2675 15.29640625 -19.5975 17.27640625 -19.9375 19.31640625 C-20.2675 19.31640625 -20.5975 19.31640625 -20.9375 19.31640625 C-21.50082703 9.7398467 -21.50082703 9.7398467 -17.9375 5.31640625 C-12.89085507 -0.23490317 -7.39885439 -2.6104829 0 0 Z " fill="#893B13" transform="translate(115.9375,200.68359375)"/>
<path d="M0 0 C1.50982187 3.01964375 0.45480727 5.13849067 -0.3125 8.375 C-0.57675781 9.51710938 -0.84101563 10.65921875 -1.11328125 11.8359375 C-2 15 -2 15 -3.0859375 16.875 C-4.57225443 20.33036927 -4.33831154 23.92483929 -4.3125 27.625 C-4.30831055 28.43098633 -4.30412109 29.23697266 -4.29980469 30.06738281 C-4.13614838 38.7133106 -2.5811311 46.19799647 3 53 C3.99 53.33 4.98 53.66 6 54 C6 55.65 6 57.3 6 59 C7.1446875 59.185625 7.1446875 59.185625 8.3125 59.375 C11 60 11 60 14 62 C19.25716943 63.21319295 22.96722259 62.9736382 28 61 C28.66 60.01 29.32 59.02 30 58 C30.99 58.33 31.98 58.66 33 59 C32.01 59.33 31.02 59.66 30 60 C29.67 60.99 29.34 61.98 29 63 C22.4568041 66.60543448 16.58138694 66.89024329 9.4375 64.9375 C1.39339782 61.94692157 -2.4924876 55.82208732 -6.0546875 48.33203125 C-10.6754735 36.9328195 -9.32223687 20.92337318 -5.15625 9.5859375 C-3.64578345 6.20779948 -2.01980092 3.10183713 0 0 Z " fill="#EAC47F" transform="translate(15,83)"/>
<path d="M0 0 C3 1 3 1 4.1875 2.625 C5.27499354 5.80382728 5.1282071 8.66661533 5 12 C4.34 12 3.68 12 3 12 C3.33 13.32 3.66 14.64 4 16 C3.34 16.33 2.68 16.66 2 17 C2 17.66 2 18.32 2 19 C3.65 19.33 5.3 19.66 7 20 C7.33 19.01 7.66 18.02 8 17 C9.65 17 11.3 17 13 17 C11.5625 19.5 11.5625 19.5 9 22 C5.88984666 22.67929342 3.11487445 22.64181723 0 22 C-2.125 20.25 -2.125 20.25 -3 18 C-2.875 15.8125 -2.875 15.8125 -2 14 C-1.01 13.67 -0.02 13.34 1 13 C1.33 10.36 1.66 7.72 2 5 C-1.65653827 2.56230782 -3.69000101 2.76055561 -8 3 C-9.37375369 4.15645826 -9.37375369 4.15645826 -9.25 7.3125 C-9.34402763 10.95551189 -9.34402763 10.95551189 -7.375 13.125 C-6.694375 14.053125 -6.694375 14.053125 -6 15 C-6.82175231 18.13759973 -7.70255875 19.70255875 -10 22 C-17.0521327 22.56872038 -17.0521327 22.56872038 -20.5 20.5 C-20.995 20.005 -21.49 19.51 -22 19 C-20.91215032 22.24983135 -20.91215032 22.24983135 -19 25 C-13.2866648 25.38088901 -10.90304598 24.99630588 -6 22 C-3.85623326 22.71458891 -2.58775583 23.41224417 -1 25 C0.80927281 25.12487758 2.62396107 25.17570846 4.4375 25.1875 C5.92056641 25.20876953 5.92056641 25.20876953 7.43359375 25.23046875 C10.16584415 25.26150753 10.16584415 25.26150753 12 23 C12.6425235 20.93125966 12.6425235 20.93125966 13 19 C13.66 19 14.32 19 15 19 C15.125 21.875 15.125 21.875 15 25 C13 27 13 27 10.98461914 27.1953125 C10.17629639 27.17210937 9.36797363 27.14890625 8.53515625 27.125 C7.21161133 27.10179687 7.21161133 27.10179687 5.86132812 27.078125 C3.99934591 27.02615062 2.13736673 26.97406774 0.27539062 26.921875 C-0.60826172 26.90640625 -1.49191406 26.8909375 -2.40234375 26.875 C-3.21179443 26.85179687 -4.02124512 26.82859375 -4.85522461 26.8046875 C-7.29979143 26.85539233 -7.29979143 26.85539233 -10 29 C-12.48046875 29.1953125 -12.48046875 29.1953125 -15.1875 29.125 C-16.08855469 29.10695312 -16.98960937 29.08890625 -17.91796875 29.0703125 C-18.60503906 29.04710937 -19.29210937 29.02390625 -20 29 C-20.66 27.68 -21.32 26.36 -22 25 C-22.66 25 -23.32 25 -24 25 C-24 22.69 -24 20.38 -24 18 C-21.125 17.875 -21.125 17.875 -18 18 C-17.34 18.66 -16.68 19.32 -16 20 C-13.42938689 20.64767793 -13.42938689 20.64767793 -11 21 C-11 20.34 -11 19.68 -11 19 C-10.34 19 -9.68 19 -9 19 C-9.36100891 15.75091983 -9.63290961 14.34484249 -12.0625 12.0625 C-14 10 -14 10 -14.25 6.75 C-14.1675 5.8425 -14.085 4.935 -14 4 C-13.01 4 -12.02 4 -11 4 C-10.67 3.01 -10.34 2.02 -10 1 C-6.85658007 -0.57170996 -3.44228549 -0.23175783 0 0 Z " fill="#E98F1D" transform="translate(159,207)"/>
<path d="M0 0 C3.7109611 0.31991044 4.99743948 0.7900419 7.625 3.3125 C7.17668186 8.24399957 6.04369634 9.89380366 2.625 13.3125 C2.71071661 15.40541157 2.71071661 15.40541157 3.625 17.3125 C3.955 18.3025 4.285 19.2925 4.625 20.3125 C6.08445288 20.22541331 7.54265868 20.11723093 9 20 C9.81210938 19.94199219 10.62421875 19.88398438 11.4609375 19.82421875 C14.00421338 19.48259472 14.00421338 19.48259472 15.625 16.3125 C16.285 16.3125 16.945 16.3125 17.625 16.3125 C17.988865 20.80016834 17.988865 20.80016834 16.45703125 22.95703125 C13.95043654 24.81159066 12.21592331 24.7124268 9.125 24.6875 C8.1659375 24.69523437 7.206875 24.70296875 6.21875 24.7109375 C3.29418495 24.26168203 2.417665 23.60178166 0.625 21.3125 C-2.92018884 22.71009905 -2.92018884 22.71009905 -6.375 24.3125 C-13.63724784 24.7735951 -13.63724784 24.7735951 -16.375 23.0625 C-17.375 21.3125 -17.375 21.3125 -17.375 17.3125 C-16.88 17.6425 -16.385 17.9725 -15.875 18.3125 C-12.11904458 19.81488217 -9.42453637 19.69817013 -5.375 19.3125 C-3.08734228 17.79172114 -3.08734228 17.79172114 -2.375 15.3125 C-3.04271183 12.91986593 -3.59597385 11.09152615 -5.375 9.3125 C-5.5625 5.875 -5.5625 5.875 -5.375 2.3125 C-3.375 0.3125 -3.375 0.3125 0 0 Z " fill="#742604" transform="translate(154.375,208.6875)"/>
<path d="M0 0 C0 0.33 0 0.66 0 1 C-2.31 1 -4.62 1 -7 1 C-7 0.34 -7 -0.32 -7 -1 C-7.73863281 -0.97679687 -8.47726563 -0.95359375 -9.23828125 -0.9296875 C-14.35195988 -0.8387199 -19.11945836 -0.89457712 -24.125 -2 C-39.41600427 -5.08464063 -55.40697114 -2.638451 -70.4609375 0.57250977 C-81.59074033 2.93613062 -91.66417191 4.08105501 -103 2 C-102.67 1.34 -102.34 0.68 -102 0 C-101.17790039 0.04060547 -100.35580078 0.08121094 -99.50878906 0.12304688 C-90.53880066 0.36879998 -82.57509384 -0.91797914 -73.89871216 -2.9937439 C-48.35209384 -9.01275924 -24.87879745 -8.61985492 0 0 Z " fill="#EEC074" transform="translate(246,38)"/>
<path d="M0 0 C0.66 0.33 1.32 0.66 2 1 C1.51098296 9.362252 -0.35240387 17.24325693 -2.421875 25.3359375 C-2.76755321 26.70528189 -3.11286249 28.07471945 -3.45782471 29.44424438 C-4.17932126 32.30131271 -4.90615606 35.15695576 -5.63671875 38.01171875 C-6.56336816 41.63502546 -7.47516546 45.26187824 -8.38273239 48.89000511 C-9.09174232 51.71616463 -9.80948353 54.54005429 -10.5296402 57.36339188 C-10.86886392 58.69805797 -11.20534097 60.03342583 -11.53878021 61.3695488 C-13.68133069 69.93222221 -16.36190374 77.95365113 -20 86 C-20.33 86 -20.66 86 -21 86 C-20.5 82.5 -20.5 82.5 -20 79 C-19.855625 77.741875 -19.71125 76.48375 -19.5625 75.1875 C-19 72 -19 72 -17 70 C-15.54929981 65.16433271 -14.74592038 61.08159232 -15 56 C-14.34 56 -13.68 56 -13 56 C-13.33 54.68 -13.66 53.36 -14 52 C-13.01 51.505 -13.01 51.505 -12 51 C-11.41647089 48.19420938 -11.41647089 48.19420938 -11.0625 44.875 C-10.06860207 37.59171598 -10.06860207 37.59171598 -8.375 34.125 C-6.79509581 30.53430865 -6.76238825 27.88099189 -7 24 C-6.34 24 -5.68 24 -5 24 C-4.34 18.06 -3.68 12.12 -3 6 C-2.34 6 -1.68 6 -1 6 C-0.67 4.02 -0.34 2.04 0 0 Z " fill="#E98715" transform="translate(280,196)"/>
<path d="M0 0 C1.28197266 -0.00386719 1.28197266 -0.00386719 2.58984375 -0.0078125 C4.88930852 0.11569746 6.85890348 0.48079313 9.0625 1.125 C9.3925 2.445 9.7225 3.765 10.0625 5.125 C9.4025 4.795 8.7425 4.465 8.0625 4.125 C3.24657881 2.51969294 -1.01668976 2.25190444 -5.6875 4.375 C-9.11349431 7.03966224 -11.54398905 8.94446714 -12.9375 13.125 C-13.49838796 18.78781112 -13.28591375 23.32560696 -9.9375 28.125 C-6.16920612 31.45512017 -3.1280434 32.80705334 1.9765625 32.50390625 C6.55405512 31.67241414 10.57915486 30.07084882 13.453125 26.30078125 C14.70506584 24.1943805 14.70506584 24.1943805 16.0625 21.125 C16.3925 21.125 16.7225 21.125 17.0625 21.125 C16.87216711 29.22279951 16.87216711 29.22279951 13.875 32.5625 C8.56273341 35.51375922 4.16130774 36.65998313 -1.9375 36.125 C-4.3990431 35.29326766 -6.59478842 34.27245057 -8.9375 33.125 C-8.9375 32.465 -8.9375 31.805 -8.9375 31.125 C-9.56140625 31.02832031 -10.1853125 30.93164062 -10.828125 30.83203125 C-12.9375 30.125 -12.9375 30.125 -14.6875 26.8125 C-16.45897877 21.360282 -16.82372507 15.78383164 -15.9375 10.125 C-13.41103559 6.64257609 -11.98069535 5.47273178 -7.9375 4.125 C-7.9375 3.135 -7.9375 2.145 -7.9375 1.125 C-5.0043642 0.14728807 -3.05571006 -0.00919011 0 0 Z " fill="#F1901C" transform="translate(108.9375,197.875)"/>
<path d="M0 0 C1.62227848 0.00119477 3.24455765 0.00164434 4.86683655 0.00138855 C8.25493753 0.00294593 11.64293174 0.01117675 15.03100586 0.0246582 C19.3490152 0.04163303 23.66690745 0.04547235 27.98494625 0.04471302 C31.33176263 0.04498649 34.67855401 0.0504961 38.02536201 0.05771446 C39.61638767 0.06087096 41.20741613 0.06286138 42.79844475 0.06360817 C64.99509362 0.08543744 64.99509362 0.08543744 69.28515625 2.23046875 C72.50729648 2.69861171 75.72984899 3.09835487 78.96289062 3.48046875 C84.18327364 4.12858614 84.18327364 4.12858614 85.28515625 5.23046875 C86.63262709 5.46121957 87.9889319 5.64199938 89.34765625 5.79296875 C90.64703125 5.93734375 91.94640625 6.08171875 93.28515625 6.23046875 C93.78015625 7.71546875 93.78015625 7.71546875 94.28515625 9.23046875 C87.46766121 8.46860583 80.82477796 7.20425349 74.1171875 5.77929688 C57.07211107 2.36768721 39.93222954 1.92791857 22.60327148 2.0246582 C19.22306749 2.04296652 15.84313926 2.04516648 12.46289062 2.04492188 C-0.29321884 2.06620474 -12.98554713 2.39806911 -25.71484375 3.23046875 C-25.71484375 2.90046875 -25.71484375 2.57046875 -25.71484375 2.23046875 C-17.17961828 -0.20411792 -8.78959433 -0.04296095 0 0 Z " fill="#FDC46D" transform="translate(143.71484375,115.76953125)"/>
<path d="M0 0 C2.0625 0.4375 2.0625 0.4375 4 1 C1.30370816 4.33071345 -2.11534234 5.39255545 -6 7 C-7.299375 7.804375 -7.299375 7.804375 -8.625 8.625 C-11 10 -11 10 -13.3515625 10.40234375 C-16.35593719 11.08032211 -18.21951891 12.20097858 -20.75 13.9375 C-21.52859375 14.46214844 -22.3071875 14.98679688 -23.109375 15.52734375 C-25.11538653 16.87176427 -25.11538653 16.87176427 -26 19 C-24.02 19.33 -22.04 19.66 -20 20 C-20 21.32 -20 22.64 -20 24 C-25.64843824 25.63177105 -29.45261234 26.53250306 -35 24 C-36.29103183 23.45682197 -37.58270978 22.91517731 -38.875 22.375 C-39.90625 21.92125 -40.9375 21.4675 -42 21 C-42 20.01 -42 19.02 -42 18 C-41.2265625 18.06960937 -40.453125 18.13921875 -39.65625 18.2109375 C-34.10610993 18.49943488 -30.07869282 18.69816812 -25.5625 15.1875 C-24.69818359 14.40439453 -24.69818359 14.40439453 -23.81640625 13.60546875 C-20.18064407 10.39192411 -15.73566301 8.26354528 -11.5 5.9375 C-10.5821875 5.43089844 -9.664375 4.92429687 -8.71875 4.40234375 C-6.18884101 3.09740506 -3.6435022 2.04716196 -1 1 C-0.67 0.67 -0.34 0.34 0 0 Z " fill="#F7D295" transform="translate(63,121)"/>
<path d="M0 0 C3.65741217 0.36205926 6.54019828 1.57295981 9.75 3.3125 C10.52859375 3.72113281 11.3071875 4.12976563 12.109375 4.55078125 C14 6 14 6 14.765625 8.16796875 C14.84296875 8.77253906 14.9203125 9.37710938 15 10 C14.360625 10.28875 13.72125 10.5775 13.0625 10.875 C10.84793921 11.82823451 10.84793921 11.82823451 10 14 C12.31 14 14.62 14 17 14 C17 14.33 17 14.66 17 15 C12.59257189 15.57968261 8.65004612 15.9747704 4.71875 13.65234375 C3.25339375 12.4444867 1.8084655 11.2115037 0.3828125 9.95703125 C-3.67245848 6.62639066 -8.34245649 4.37665304 -13 2 C-9.59473007 1.02189055 -7.45832581 1.18092283 -4 2 C-3.34 2 -2.68 2 -2 2 C-1.34 1.34 -0.68 0.68 0 0 Z " fill="#F9CF8D" transform="translate(274,131)"/>
<path d="M0 0 C0.33 0 0.66 0 1 0 C1.2475 0.94875 1.495 1.8975 1.75 2.875 C2.661178 6.08838835 2.661178 6.08838835 5.0625 7.1875 C5.701875 7.455625 6.34125 7.72375 7 8 C7.33 8.99 7.66 9.98 8 11 C22.35206288 20.1080399 37.24409546 19.14666216 53.6328125 18.2890625 C59.75917799 17.97338739 65.86686628 17.93796561 72 18 C71.67 18.66 71.34 19.32 71 20 C58.5352207 20.72711213 46.13433565 21.10926273 33.64648438 20.96289062 C32.67646484 20.95451172 31.70644531 20.94613281 30.70703125 20.9375 C29.8456958 20.92589844 28.98436035 20.91429687 28.09692383 20.90234375 C25.94065524 20.86087239 25.94065524 20.86087239 24 22 C14.81906597 20.62440551 8.22302219 16.74742196 2.0625 9.9375 C0.06495033 7.09250501 -0.80894018 5.4390768 -1 2 C-0.67 1.34 -0.34 0.68 0 0 Z " fill="#E67E10" transform="translate(57,275)"/>
<path d="M0 0 C5.14865703 4.35201668 6.57080395 11.75002606 7.22460938 18.22412109 C8.31887879 37.05269151 8.31887879 37.05269151 4 43 C1.50286967 44.89965743 -0.94817507 46.2354239 -4 47 C-4.66 46.67 -5.32 46.34 -6 46 C-5.34 45.01 -4.68 44.02 -4 43 C-3.01 43 -2.02 43 -1 43 C-1 42.34 -1 41.68 -1 41 C-0.34 41 0.32 41 1 41 C4.37840078 28.45165423 4.40752063 14.31275257 0 2 C-0.66 1.67 -1.32 1.34 -2 1 C-1.34 0.67 -0.68 0.34 0 0 Z " fill="#FAD596" transform="translate(303,88)"/>
<path d="M0 0 C9.00106521 9.00106521 11.91670314 23.11624276 12.1875 35.4375 C12.05937841 44.84162478 9.44360587 53.81902722 3.2109375 61.0859375 C-1.24953 65.29761398 -5.90668775 67.97883717 -12 69 C-15.5625 68.6875 -15.5625 68.6875 -18 68 C-18 67.67 -18 67.34 -18 67 C-16.72125 66.95875 -15.4425 66.9175 -14.125 66.875 C-8.2790373 66.22750413 -3.53199634 63.69758546 1 60 C2.68545253 57.55906476 2.68545253 57.55906476 4 55 C4.37382812 54.3915625 4.74765625 53.783125 5.1328125 53.15625 C10.32511247 44.48878863 10.61699678 32.52047022 8.50488281 22.69726562 C7.28424696 18.35509788 5.72193464 14.16954174 4 10 C3.34 10 2.68 10 2 10 C1.34 6.7 0.68 3.4 0 0 Z " fill="#DFA94E" transform="translate(300,79)"/>
<path d="M0 0 C0.99 0.495 0.99 0.495 2 1 C2 1.99 2 2.98 2 4 C2.66 4 3.32 4 4 4 C5.61449671 8.23805388 6 11.50578469 6 16 C6.92414941 19.27564363 6.92414941 19.27564363 8 22 C8.66 22 9.32 22 10 22 C9.95875 23.155 9.9175 24.31 9.875 25.5 C9.875 29.12737645 10.4431147 32.3263827 11.421875 35.8359375 C12.49234611 39.84297126 13.21581794 43.92892719 14 48 C13.01 48.495 13.01 48.495 12 49 C8.94748797 38.23884007 6.02685084 27.44436776 3.1875 16.625 C2.87353271 15.44252686 2.55956543 14.26005371 2.23608398 13.04174805 C1.80017944 11.3697937 1.80017944 11.3697937 1.35546875 9.6640625 C1.09403076 8.66842285 0.83259277 7.6727832 0.56323242 6.64697266 C0 4 0 4 0 0 Z " fill="#EE9217" transform="translate(41,223)"/>
<path d="M0 0 C6.3717059 0.13274387 11.29054512 2.70702752 16 7 C16 7.99 16 8.98 16 10 C16.99 10.33 17.98 10.66 19 11 C20.44207941 13.88415883 20.09394887 16.41721528 20.0625 19.625 C20.05347656 20.81351563 20.04445312 22.00203125 20.03515625 23.2265625 C20.02355469 24.14179688 20.01195312 25.05703125 20 26 C19.34 26 18.68 26 18 26 C18 26.66 18 27.32 18 28 C17.34 28 16.68 28 16 28 C16.15597656 27.43925781 16.31195313 26.87851563 16.47265625 26.30078125 C17.58021886 21.4685266 18.27918732 16.34803847 15.8359375 11.86328125 C12.93235967 8.31198221 10.43815102 6.37060546 6 5 C3.10348171 4.76028911 3.10348171 4.76028911 0.1875 4.875 C-0.78832031 4.89304688 -1.76414063 4.91109375 -2.76953125 4.9296875 C-3.50558594 4.95289063 -4.24164063 4.97609375 -5 5 C-5 5.66 -5 6.32 -5 7 C-6.95927063 8.7143618 -8.95880212 10.38405168 -11 12 C-10.45276317 8.62537285 -9.9451 6.91765 -8 4 C-5.69034152 2.94647157 -3.3570226 1.94280904 -1 1 C-0.67 0.67 -0.34 0.34 0 0 Z " fill="#ED8D22" transform="translate(203,196)"/>
<path d="M0 0 C0 0.33 0 0.66 0 1 C-0.9115686 1.15033691 -0.9115686 1.15033691 -1.84155273 1.30371094 C-12.13082213 3.01325895 -22.4086567 4.72180505 -32.5625 7.125 C-33.23273193 7.28323242 -33.90296387 7.44146484 -34.59350586 7.60449219 C-37.52626325 8.31959776 -40.38260243 9.12799456 -43.24609375 10.0859375 C-46.47528151 11.15775301 -49.63563969 11.5193771 -53 12 C-53.99 12.33 -54.98 12.66 -56 13 C-59.32379772 14.10793257 -62.52791997 14.5833504 -66 15 C-65 13 -65 13 -62.8125 12.25390625 C-61.884375 12.02574219 -60.95625 11.79757813 -60 11.5625 C-56.52425066 10.69849981 -53.13914034 9.72520731 -49.75390625 8.5625 C-33.81205664 3.17800114 -16.8457784 -0.2038543 0 0 Z " fill="#E79325" transform="translate(133,118)"/>
<path d="M0 0 C4.33614219 2.2521773 6.87886137 4.86514289 9.0625 9.31640625 C9.75041909 12.3159358 10.2473319 15.23587453 10.0625 18.31640625 C9.4025 18.97640625 8.7425 19.63640625 8.0625 20.31640625 C8.01351562 19.60613281 7.96453125 18.89585937 7.9140625 18.1640625 C7.83929688 17.24496094 7.76453125 16.32585937 7.6875 15.37890625 C7.61789063 14.46238281 7.54828125 13.54585937 7.4765625 12.6015625 C7.33992188 11.84746094 7.20328125 11.09335938 7.0625 10.31640625 C6.4025 9.98640625 5.7425 9.65640625 5.0625 9.31640625 C5.0625 8.65640625 5.0625 7.99640625 5.0625 7.31640625 C4.4025 7.31640625 3.7425 7.31640625 3.0625 7.31640625 C2.7325 5.99640625 2.4025 4.67640625 2.0625 3.31640625 C-2.7726138 1.70470165 -8.13401495 1.71524457 -12.9375 3.31640625 C-14.31084617 5.60531653 -15.09000816 7.77393072 -15.9375 10.31640625 C-14.9475 11.30640625 -13.9575 12.29640625 -12.9375 13.31640625 C-14.9175 13.31640625 -16.8975 13.31640625 -18.9375 13.31640625 C-19.2675 15.29640625 -19.5975 17.27640625 -19.9375 19.31640625 C-20.2675 19.31640625 -20.5975 19.31640625 -20.9375 19.31640625 C-21.50082703 9.7398467 -21.50082703 9.7398467 -17.9375 5.31640625 C-12.89085507 -0.23490317 -7.39885439 -2.6104829 0 0 Z " fill="#993F03" transform="translate(115.9375,200.68359375)"/>
<path d="M0 0 C0 0.33 0 0.66 0 1 C-2.29199177 0.85936865 -4.58359186 0.71234057 -6.875 0.5625 C-8.15117187 0.48128906 -9.42734375 0.40007813 -10.7421875 0.31640625 C-14 0 -14 0 -16 -1 C-18.70150557 -1.01662063 -21.37221408 -0.9727682 -24.0703125 -0.87890625 C-24.86654022 -0.85529526 -25.66276794 -0.83168427 -26.48312378 -0.80735779 C-29.03059529 -0.73067789 -31.5777661 -0.64667239 -34.125 -0.5625 C-35.85024562 -0.50928363 -37.57550598 -0.4565432 -39.30078125 -0.40429688 C-43.53404522 -0.27505693 -47.76705382 -0.13924581 -52 0 C-52 -0.66 -52 -1.32 -52 -2 C-34.31422861 -6.02602926 -17.43362452 -4.15439563 0 0 Z " fill="#E8BA6B" transform="translate(140,35)"/>
<path d="M0 0 C2.64 0.66 5.28 1.32 8 2 C8 2.99 8 3.98 8 5 C9.1446875 5.185625 9.1446875 5.185625 10.3125 5.375 C13 6 13 6 16 8 C21.25716943 9.21319295 24.96722259 8.9736382 30 7 C30.66 6.01 31.32 5.02 32 4 C32.99 4.33 33.98 4.66 35 5 C34.01 5.33 33.02 5.66 32 6 C31.67 6.99 31.34 7.98 31 9 C24.4568041 12.60543448 18.58138694 12.89024329 11.4375 10.9375 C6.57486279 9.18154767 3.08697171 6.11927093 0 2 C0 1.34 0 0.68 0 0 Z " fill="#F5C67F" transform="translate(13,137)"/>
<path d="M0 0 C1.28132813 0.00902344 2.56265625 0.01804688 3.8828125 0.02734375 C5.36394531 0.04474609 5.36394531 0.04474609 6.875 0.0625 C6.875 0.3925 6.875 0.7225 6.875 1.0625 C5.59882813 1.20945313 5.59882813 1.20945313 4.296875 1.359375 C-2.42128015 2.18842393 -9.00639669 3.20610431 -15.62548828 4.63500977 C-26.72873127 7.02939121 -36.81504274 8.13880559 -48.125 6.0625 C-47.795 5.4025 -47.465 4.7425 -47.125 4.0625 C-46.3928125 4.09730469 -45.660625 4.13210937 -44.90625 4.16796875 C-36.60273094 4.37555673 -28.60814351 3.66272424 -20.375 2.625 C-19.30314453 2.49053467 -18.23128906 2.35606934 -17.12695312 2.2175293 C-0.25452387 -0.00231385 -0.25452387 -0.00231385 0 0 Z " fill="#F8D894" transform="translate(191.125,33.9375)"/>
<path d="M0 0 C0 0.99 0 1.98 0 3 C-2.07679493 4.92295827 -3.92348524 5.97014058 -6.5625 7 C-9.01659945 7.82369638 -9.01659945 7.82369638 -10.5 9.5 C-13.20213983 12.20213983 -16.40403696 12.92848443 -20.125 13.375 C-23.24035874 14.72942816 -23.24035874 14.72942816 -24.046875 17.796875 C-24.80759711 20.85411669 -25.45907823 23.89681722 -26 27 C-26.33 27 -26.66 27 -27 27 C-26.67 22.71 -26.34 18.42 -26 14 C-28.64 13.01 -31.28 12.02 -34 11 C-30 10 -30 10 -28 11 C-22.12509238 11.39829882 -18.30602987 10.857093 -13 8 C-11.64567325 6.68799596 -10.31266518 5.35368596 -9 4 C-2.96587031 0 -2.96587031 0 0 0 Z " fill="#F19724" transform="translate(57,137)"/>
<path d="M0 0 C5.19713709 1.73237903 9.23019025 5.25791327 12 10 C11.67 10.99 11.34 11.98 11 13 C10.34 12.34 9.68 11.68 9 11 C8.01 11.33 7.02 11.66 6 12 C4.23537317 8.91190305 4 7.76687864 4 4 C2.19747131 3.29805007 2.19747131 3.29805007 0 3 C-0.99 3.495 -0.99 3.495 -2 4 C-2.99 4.495 -2.99 4.495 -4 5 C-4.61875 4.79375 -5.2375 4.5875 -5.875 4.375 C-8.31211046 3.70624957 -8.31211046 3.70624957 -11.25 5.9375 C-12.1575 6.618125 -13.065 7.29875 -14 8 C-14.33 7.01 -14.66 6.02 -15 5 C-13.68 4.34 -12.36 3.68 -11 3 C-11 2.34 -11 1.68 -11 1 C-7.5366128 -0.7316936 -3.79343523 -0.34018962 0 0 Z " fill="#913909" transform="translate(209,200)"/>
<path d="M0 0 C6.69719578 1.23948101 12.18699067 3.17680645 18.1875 6.375 C19.00613525 6.8076416 19.82477051 7.2402832 20.66821289 7.68603516 C30.37074629 13.02029974 38.26695356 20.13651663 46 28 C45.67 28.66 45.34 29.32 45 30 C43.7315625 28.77023438 43.7315625 28.77023438 42.4375 27.515625 C36.60154739 21.94228164 31.50396686 17.19613403 24 14 C22.99380618 13.00623242 21.99398452 12.00597951 21 11 C19.25538877 9.90845905 19.25538877 9.90845905 17.34765625 8.9921875 C16.65349609 8.64542969 15.95933594 8.29867187 15.24414062 7.94140625 C14.52419922 7.58949219 13.80425781 7.23757812 13.0625 6.875 C12.34642578 6.51535156 11.63035156 6.15570313 10.89257812 5.78515625 C6.98483045 3.81310086 6.98483045 3.81310086 2.82592773 2.51611328 C1.92209351 2.26063721 1.92209351 2.26063721 1 2 C0.67 1.34 0.34 0.68 0 0 Z " fill="#D8AB4F" transform="translate(246,39)"/>
<path d="M0 0 C2 2 2 2 2.375 5.1875 C1.91484377 9.86575497 0.54430059 12.10403972 -2 16 C-2.99 16 -3.98 16 -5 16 C-5.76173392 11.6835078 -6.16063604 8.25566547 -5 4 C-4.34 4 -3.68 4 -3 4 C-3 3.34 -3 2.68 -3 2 C-2.01 2 -1.02 2 0 2 C0 1.34 0 0.68 0 0 Z " fill="#732A03" transform="translate(219,211)"/>
<path d="M0 0 C2.0625 0.4375 2.0625 0.4375 4 1 C1.30370816 4.33071345 -2.11534234 5.39255545 -6 7 C-7.299375 7.804375 -7.299375 7.804375 -8.625 8.625 C-11 10 -11 10 -13.33203125 10.3671875 C-16.55940982 11.13268579 -18.42364207 12.50964039 -21.0625 14.5 C-24.03564003 16.73558141 -26.2964106 18.38416065 -30 19 C-22.35560213 10.63893983 -11.41909773 5.14209314 -1 1 C-0.67 0.67 -0.34 0.34 0 0 Z " fill="#F8DDA6" transform="translate(63,121)"/>
<path d="M0 0 C0.66 0 1.32 0 2 0 C2.125 2.875 2.125 2.875 2 6 C0 8 0 8 -2.01538086 8.21118164 C-2.82370361 8.19434326 -3.63202637 8.17750488 -4.46484375 8.16015625 C-5.34720703 8.14919922 -6.22957031 8.13824219 -7.13867188 8.12695312 C-8.06228516 8.10568359 -8.98589844 8.08441406 -9.9375 8.0625 C-11.75903472 8.02803508 -13.58065793 7.99790208 -15.40234375 7.97265625 C-16.21179443 7.95468994 -17.02124512 7.93672363 -17.85522461 7.91821289 C-20.18729826 7.90696161 -20.18729826 7.90696161 -23 9 C-25.04296875 8.87890625 -25.04296875 8.87890625 -27.1875 8.5625 C-28.445625 8.376875 -29.70375 8.19125 -31 8 C-31 7.67 -31 7.34 -31 7 C-30.11248047 6.81824219 -30.11248047 6.81824219 -29.20703125 6.6328125 C-24.96196415 5.73255357 -20.97560339 4.79543379 -17 3 C-16.42958984 3.73283203 -16.42958984 3.73283203 -15.84765625 4.48046875 C-13.32413461 6.55583856 -11.66510682 6.36837069 -8.4375 6.3125 C-7.46683594 6.30863281 -6.49617188 6.30476562 -5.49609375 6.30078125 C-2.82827665 6.23989886 -2.82827665 6.23989886 -1 4 C-0.3574765 1.93125966 -0.3574765 1.93125966 0 0 Z " fill="#DC871E" transform="translate(172,226)"/>
<path d="M0 0 C0.33 0.99 0.66 1.98 1 3 C0.01 4.485 0.01 4.485 -1 6 C-1.66 6 -2.32 6 -3 6 C-3 6.66 -3 7.32 -3 8 C-15.48519362 10.66514806 -15.48519362 10.66514806 -22 8 C-22 7.01 -22 6.02 -22 5 C-22.99 5 -23.98 5 -25 5 C-24.67 3.68 -24.34 2.36 -24 1 C-23.401875 1.639375 -22.80375 2.27875 -22.1875 2.9375 C-18.77130689 6.15848208 -15.65705329 6.26819192 -11.06640625 6.234375 C-7.99577965 5.88609977 -5.6535133 4.51629332 -3 3 C-2.34 3 -1.68 3 -1 3 C-0.67 2.01 -0.34 1.02 0 0 Z " fill="#E58522" transform="translate(218,224)"/>
<path d="M0 0 C4.24653592 2.18393276 7.63548817 4.81464147 10 9 C10.95754497 12.30204939 11.54904856 15.59430702 12 19 C6.95008472 14.14546835 2.76409704 8.44955975 0 2 C0 1.34 0 0.68 0 0 Z " fill="#F8D28C" transform="translate(290,68)"/>
<path d="M0 0 C0.33 0.66 0.66 1.32 1 2 C-1.43444661 9.27673386 -5.57031546 14.8402937 -12 19 C-17.15415744 21.52466356 -21.33288307 22.59841759 -27 21 C-27 20.67 -27 20.34 -27 20 C-25.081875 19.938125 -25.081875 19.938125 -23.125 19.875 C-17.2790373 19.22750413 -12.53199634 16.69758546 -8 13 C-6.34037553 10.5915987 -6.34037553 10.5915987 -5 8 C-4.10794698 6.56015104 -3.21239191 5.12246277 -2.3125 3.6875 C-1.87550781 2.99011719 -1.43851562 2.29273438 -0.98828125 1.57421875 C-0.66214844 1.05472656 -0.33601563 0.53523438 0 0 Z " fill="#DB9D43" transform="translate(309,126)"/>
<path d="M0 0 C10.88046418 -0.46909786 19.72514247 -0.00272711 30 4 C30 4.33 30 4.66 30 5 C27.69 5 25.38 5 23 5 C23 4.34 23 3.68 23 3 C22.26136719 3.02320313 21.52273437 3.04640625 20.76171875 3.0703125 C13.59156136 3.19786295 7.00003611 2.54331505 0 1 C0 0.67 0 0.34 0 0 Z " fill="#F0C881" transform="translate(216,34)"/>
<path d="M0 0 C1.2065625 0.0309375 1.2065625 0.0309375 2.4375 0.0625 C1.7775 0.454375 1.1175 0.84625 0.4375 1.25 C-1.84088253 2.88640313 -1.84088253 2.88640313 -1.6875 5.5 C-1.64625 6.345625 -1.605 7.19125 -1.5625 8.0625 C-1.87703125 8.62582031 -2.1915625 9.18914062 -2.515625 9.76953125 C-3.96439618 12.94277259 -3.9947272 15.84258962 -4.1875 19.3125 C-4.26226562 20.57578125 -4.33703125 21.8390625 -4.4140625 23.140625 C-4.46304688 24.10484375 -4.51203125 25.0690625 -4.5625 26.0625 C-5.2225 26.0625 -5.8825 26.0625 -6.5625 26.0625 C-6.9446467 17.28727954 -6.34957765 9.43817376 -3.5625 1.0625 C-2.5625 0.0625 -2.5625 0.0625 0 0 Z " fill="#F59010" transform="translate(36.5625,150.9375)"/>
<path d="M0 0 C7.05483697 2.55174954 13.9466391 5.49217806 20 10 C20 10.66 20 11.32 20 12 C20.66 12.33 21.32 12.66 22 13 C19.525 12.505 19.525 12.505 17 12 C17 11.34 17 10.68 17 10 C15.95779297 9.85884766 15.95779297 9.85884766 14.89453125 9.71484375 C11.40627344 8.85337117 8.78258977 7.38025113 5.6875 5.5625 C4.61886719 4.94503906 3.55023438 4.32757813 2.44921875 3.69140625 C1.64097656 3.13324219 0.83273438 2.57507812 0 2 C0 1.34 0 0.68 0 0 Z " fill="#F8D694" transform="translate(250,41)"/>
<path d="M0 0 C0.33 0 0.66 0 1 0 C0.98839844 0.96421875 0.97679687 1.9284375 0.96484375 2.921875 C0.95582031 4.18515625 0.94679687 5.4484375 0.9375 6.75 C0.92589844 8.00296875 0.91429687 9.2559375 0.90234375 10.546875 C0.97978973 13.28536501 1.17219185 15.41880293 2 18 C1.01 18 0.02 18 -1 18 C-3.48496701 14.27254949 -3.57158898 10.32419492 -3 6 C-1.5 2.5 -1.5 2.5 0 0 Z " fill="#923902" transform="translate(193,206)"/>
<path d="M0 0 C0.99 1.485 0.99 1.485 2 3 C4.9701619 7.05922126 6.97511078 9.49972986 12.03125 10.3359375 C14.01633317 10.59455749 16.00807583 10.80080758 18 11 C16 13 16 13 12.625 13.25 C9.36476676 13.02515633 7.69367359 12.7239511 5 11 C5 10.34 5 9.68 5 9 C4.360625 8.87625 3.72125 8.7525 3.0625 8.625 C2.381875 8.41875 1.70125 8.2125 1 8 C-0.35439668 5.29120665 -0.06501451 2.99066732 0 0 Z " fill="#E98724" transform="translate(95,220)"/>
<path d="M0 0 C6.6 0.6 6.6 0.6 9 3 C7.98679688 3.09087891 7.98679688 3.09087891 6.953125 3.18359375 C6.06109375 3.26738281 5.1690625 3.35117188 4.25 3.4375 C3.36828125 3.51871094 2.4865625 3.59992188 1.578125 3.68359375 C-0.69350452 3.96238465 -2.79851823 4.38790577 -5 5 C-5 5.66 -5 6.32 -5 7 C-6.95927063 8.7143618 -8.95880212 10.38405168 -11 12 C-10.45276317 8.62537285 -9.9451 6.91765 -8 4 C-5.69034152 2.94647157 -3.3570226 1.94280904 -1 1 C-0.67 0.67 -0.34 0.34 0 0 Z " fill="#F79816" transform="translate(203,196)"/>
<path d="M0 0 C5.61 0.66 11.22 1.32 17 2 C16.67 2.66 16.34 3.32 16 4 C14.35 4.33 12.7 4.66 11 5 C10.01 8.96 9.02 12.92 8 17 C7.67 17 7.34 17 7 17 C7.33 12.71 7.66 8.42 8 4 C5.36 3.01 2.72 2.02 0 1 C0 0.67 0 0.34 0 0 Z " fill="#E79128" transform="translate(23,147)"/>
<path d="M0 0 C0.99 0 1.98 0 3 0 C1.53657956 3.52942577 -0.34092509 5.44023431 -3.3125 7.8125 C-4.07175781 8.43769531 -4.83101562 9.06289063 -5.61328125 9.70703125 C-8 11 -8 11 -10.79296875 10.69921875 C-11.52128906 10.46847656 -12.24960937 10.23773438 -13 10 C-13 9.34 -13 8.68 -13 8 C-11.948125 7.54625 -10.89625 7.0925 -9.8125 6.625 C-9.17699219 6.34914063 -8.54148437 6.07328125 -7.88671875 5.7890625 C-6.32243818 5.13484992 -4.72646326 4.5570307 -3.125 4 C-2.42375 3.67 -1.7225 3.34 -1 3 C-0.67 2.01 -0.34 1.02 0 0 Z " fill="#FBF6DF" transform="translate(69,53)"/>
<path d="M0 0 C-4.56434382 2.03938766 -9.11726938 3.75445236 -13.88671875 5.25390625 C-16.03898389 5.95972754 -16.03898389 5.95972754 -18.09765625 7.08203125 C-20.49429914 8.23852217 -22.3732028 8.14593318 -25 8 C-21.62379467 5.11334445 -18.17729687 3.81758345 -14 2.375 C-12.783125 1.94960938 -11.56625 1.52421875 -10.3125 1.0859375 C-3.47086801 -1.156956 -3.47086801 -1.156956 0 0 Z " fill="#FBDFA1" transform="translate(83,38)"/>
<path d="M0 0 C0.66 0 1.32 0 2 0 C2.06058594 0.89203125 2.12117188 1.7840625 2.18359375 2.703125 C2.26738281 3.87359375 2.35117187 5.0440625 2.4375 6.25 C2.55931641 7.99023438 2.55931641 7.99023438 2.68359375 9.765625 C2.93247787 12.30977376 3.28114942 14.55953248 4 17 C3.01 16.67 2.02 16.34 1 16 C-0.84100006 11.32366295 -1.37356542 5.98087224 -1 1 C-0.67 0.67 -0.34 0.34 0 0 Z " fill="#EF9A17" transform="translate(36,197)"/>
<path d="M0 0 C0.66 0 1.32 0 2 0 C2.36625971 4.51720311 2.36625971 4.51720311 0.625 6.8125 C-1 8 -1 8 -3 8 C-3 7.01 -3 6.02 -3 5 C-6.3 5 -9.6 5 -13 5 C-12.67 3.68 -12.34 2.36 -12 1 C-11.67 1.99 -11.34 2.98 -11 4 C-9.54054712 3.91291331 -8.08234132 3.80473093 -6.625 3.6875 C-5.81289062 3.62949219 -5.00078125 3.57148438 -4.1640625 3.51171875 C-1.62078662 3.17009472 -1.62078662 3.17009472 0 0 Z " fill="#863A06" transform="translate(170,225)"/>
<path d="M0 0 C-2 2 -2 2 -5.3125 2.4375 C-9.09922719 3.01513635 -10.81433665 4.00896041 -14 6 C-16.31691454 6.72166191 -18.64848923 7.40059529 -21 8 C-16.33767373 2.99231622 -7.1376903 -3.56884515 0 0 Z " fill="#FBE7B6" transform="translate(68,45)"/>
<path d="M0 0 C0.33 0 0.66 0 1 0 C1.2475 0.94875 1.495 1.8975 1.75 2.875 C2.661178 6.08838835 2.661178 6.08838835 5.0625 7.1875 C5.701875 7.455625 6.34125 7.72375 7 8 C7.33 8.99 7.66 9.98 8 11 C9.49985609 12.66710346 9.49985609 12.66710346 11 14 C6.35023641 13.28465176 2.36099402 10.83438324 -0.4375 7.0625 C-1.15660708 4.42577404 -0.72355095 2.60478343 0 0 Z " fill="#EF8712" transform="translate(57,275)"/>
<path d="M0 0 C1.984375 1.17578125 1.984375 1.17578125 4 3 C4.390625 5.48046875 4.390625 5.48046875 4.25 8.1875 C4.21390625 9.08855469 4.1778125 9.98960937 4.140625 10.91796875 C4.09421875 11.60503906 4.0478125 12.29210937 4 13 C4.66 13.33 5.32 13.66 6 14 C6 14.66 6 15.32 6 16 C4.125 15.4375 4.125 15.4375 2 14 C0.13882739 9.25400985 -0.20674844 5.06533667 0 0 Z " fill="#782B03" transform="translate(193,213)"/>
<path d="M0 0 C0.99 0.33 1.98 0.66 3 1 C3.36340286 2.76896102 3.71540883 4.54026626 4.0625 6.3125 C4.25972656 7.29863281 4.45695312 8.28476563 4.66015625 9.30078125 C5 12 5 12 4 15 C3.34 15 2.68 15 2 15 C1.66048381 13.43883181 1.32867456 11.87598662 1 10.3125 C0.814375 9.44238281 0.62875 8.57226562 0.4375 7.67578125 C0.01027953 5.06287036 -0.07616201 2.64186962 0 0 Z " fill="#F29017" transform="translate(31,178)"/>
<path d="M0 0 C4.03131967 3.46670907 4.87545381 7.96297018 6 13 C6.1875 16.625 6.1875 16.625 6 19 C5.67 19 5.34 19 5 19 C4.33333333 17 3.66666667 15 3 13 C2.73574219 12.23042969 2.47148437 11.46085937 2.19921875 10.66796875 C1.92722656 9.87003906 1.65523438 9.07210937 1.375 8.25 C1.11460937 7.49203125 0.85421875 6.7340625 0.5859375 5.953125 C0 4 0 4 0 2 C-0.66 1.67 -1.32 1.34 -2 1 C-1.34 0.67 -0.68 0.34 0 0 Z " fill="#FAD18F" transform="translate(303,88)"/>
<path d="M0 0 C3.3 0 6.6 0 10 0 C12.10814567 4.21629134 12.17700355 6.39790775 12 11 C10.68 10.67 9.36 10.34 8 10 C8.33 8.02 8.66 6.04 9 4 C5.81237635 1.87491756 3.73487777 1.4979837 0 1 C0 0.67 0 0.34 0 0 Z " fill="#EA8D1E" transform="translate(152,208)"/>
<path d="M0 0 C0 0.66 0 1.32 0 2 C0.77085937 2.12117188 1.54171875 2.24234375 2.3359375 2.3671875 C3.33882812 2.53476563 4.34171875 2.70234375 5.375 2.875 C6.37273437 3.03742188 7.37046875 3.19984375 8.3984375 3.3671875 C11 4 11 4 13 6 C4.92614962 4.62469483 -3.03399365 2.89968355 -11 1 C-11 0.67 -11 0.34 -11 0 C-6.98195309 -0.84098656 -3.98196457 -1.05404945 0 0 Z " fill="#FDE5AD" transform="translate(227,109)"/>
<path d="M0 0 C0.66 0 1.32 0 2 0 C1.835 0.495 1.67 0.99 1.5 1.5 C0.38626107 7.06869464 0.45051392 11.90102784 3 17 C1.68 16.67 0.36 16.34 -1 16 C-1.22127098 13.70954632 -1.4266504 11.41755236 -1.625 9.125 C-1.74101562 7.84882813 -1.85703125 6.57265625 -1.9765625 5.2578125 C-1.98816406 3.64519531 -1.98816406 3.64519531 -2 2 C-1.34 1.34 -0.68 0.68 0 0 Z " fill="#F2911D" transform="translate(190,208)"/>
<path d="M0 0 C-3.43743404 1.96061053 -6.83266506 2.73800563 -10.6875 3.5625 C-14.66023405 4.12199479 -14.66023405 4.12199479 -18 6 C-19.66617115 6.04063832 -21.33388095 6.042721 -23 6 C-23 5.34 -23 4.68 -23 4 C-22.10796875 3.79503906 -21.2159375 3.59007813 -20.296875 3.37890625 C-19.12640625 3.10949219 -17.9559375 2.84007813 -16.75 2.5625 C-15.58984375 2.29566406 -14.4296875 2.02882813 -13.234375 1.75390625 C-11.41086268 1.3288605 -9.58999944 0.89028154 -7.78125 0.40625 C-5.18391038 -0.1861257 -2.65170387 -0.060266 0 0 Z " fill="#FCC36A" transform="translate(97,123)"/>
<path d="M0 0 C7.55137932 -0.30071865 14.58856436 0.57374434 22 2 C18.20291176 4.53139216 16.21767353 3.79813614 12 3 C9.85458229 2.6433243 7.70872288 2.28929833 5.5625 1.9375 C3.70819944 1.62579549 1.85398698 1.3135643 0 1 C0 0.67 0 0.34 0 0 Z " fill="#EF860C" transform="translate(197,120)"/>
<path d="M0 0 C0.99 0.33 1.98 0.66 3 1 C2.01 1.33 1.02 1.66 0 2 C-0.33 2.99 -0.66 3.98 -1 5 C-6.24073059 7.88774951 -10.06556211 8.31233884 -16 8 C-15.01 7.67 -14.02 7.34 -13 7 C-13 6.34 -13 5.68 -13 5 C-12.113125 4.855625 -11.22625 4.71125 -10.3125 4.5625 C-9.219375 4.376875 -8.12625 4.19125 -7 4 C-6.0925 3.87625 -5.185 3.7525 -4.25 3.625 C-1.63688644 3.16299902 -1.63688644 3.16299902 0 0 Z " fill="#FBC76F" transform="translate(45,141)"/>
<path d="M0 0 C0.66 0.33 1.32 0.66 2 1 C1.51679152 7.2054142 0.66681876 12.99945246 -1 19 C-1.33 19 -1.66 19 -2 19 C-1.85913398 16.39547729 -1.71251536 13.79149803 -1.5625 11.1875 C-1.50352539 10.08051758 -1.50352539 10.08051758 -1.44335938 8.95117188 C-1.25618965 5.76928658 -1.01279207 3.03837622 0 0 Z " fill="#EF9516" transform="translate(280,196)"/>
<path d="M0 0 C-5.67331458 3.0548617 -10.95244493 4.26145915 -17.375 4.625 C-19.24285156 4.73714844 -19.24285156 4.73714844 -21.1484375 4.8515625 C-22.55996094 4.92503906 -22.55996094 4.92503906 -24 5 C-20.51086564 3.0037291 -17.04183975 2.20890782 -13.125 1.375 C-11.33449219 0.98441406 -11.33449219 0.98441406 -9.5078125 0.5859375 C-6.25533125 0.04264999 -3.28829005 -0.11061526 0 0 Z " fill="#EDB965" transform="translate(192,32)"/>
<path d="M0 0 C0.763125 0.639375 1.52625 1.27875 2.3125 1.9375 C4.88246713 4.14232781 4.88246713 4.14232781 8 5 C8 5.66 8 6.32 8 7 C10.64 7 13.28 7 16 7 C13.65887549 8.44977894 12.4203071 9.04314411 9.640625 8.7578125 C8.45726562 8.44457031 8.45726562 8.44457031 7.25 8.125 C6.05117187 7.81949219 6.05117187 7.81949219 4.828125 7.5078125 C4.22484375 7.34023437 3.6215625 7.17265625 3 7 C3 6.01 3 5.02 3 4 C2.01 4 1.02 4 0 4 C0 2.68 0 1.36 0 0 Z " fill="#F89518" transform="translate(193,225)"/>
<path d="M0 0 C3.96 0.33 7.92 0.66 12 1 C11.01 2.32 10.02 3.64 9 5 C5.97580475 4.41196203 2.98241547 3.77321882 0 3 C0 2.01 0 1.02 0 0 Z " fill="#F5D7A3" transform="translate(21,139)"/>
<path d="M0 0 C0.66 0.33 1.32 0.66 2 1 C-1.34633105 5.68486348 -4.79119227 9.39559614 -10 12 C-10.66 11.67 -11.32 11.34 -12 11 C-10.71034824 9.62437146 -9.37310707 8.29233607 -8 7 C-7.34 7 -6.68 7 -6 7 C-6 6.34 -6 5.68 -6 5 C-4.04072937 3.2856382 -2.04119788 1.61594832 0 0 Z " fill="#F6DD9D" transform="translate(43,54)"/>
<path d="M0 0 C-2.59733274 2.87561839 -4.21345482 4.24269096 -8 5 C-8.66 5.66 -9.32 6.32 -10 7 C-10.66 6.34 -11.32 5.68 -12 5 C-5.64705882 -1.88235294 -5.64705882 -1.88235294 0 0 Z " fill="#FDF6D7" transform="translate(57,51)"/>
<path d="M0 0 C3.64060348 1.57362534 6.29840005 3.80954039 9.25 6.4375 C10.14203125 7.21996094 11.0340625 8.00242187 11.953125 8.80859375 C14 11 14 11 14 14 C11.66267107 11.85848453 9.33082607 9.71108967 7 7.5625 C6.33226562 6.95083984 5.66453125 6.33917969 4.9765625 5.70898438 C4.34492188 5.12568359 3.71328125 4.54238281 3.0625 3.94140625 C2.47597656 3.40201416 1.88945312 2.86262207 1.28515625 2.30688477 C0 1 0 1 0 0 Z " fill="#D8A543" transform="translate(277,55)"/>
<path d="M0 0 C2.3431213 0.25561323 4.67843403 0.59270772 7 1 C7.33 1.66 7.66 2.32 8 3 C10.32156597 3.40729228 12.6568787 3.74438677 15 4 C15 4.33 15 4.66 15 5 C6.22421525 5.76681614 6.22421525 5.76681614 3.22265625 3.88671875 C1.875 2.5 1.875 2.5 0 0 Z " fill="#F8C16D" transform="translate(276,141)"/>
<path d="M0 0 C2.3125 0.0625 2.3125 0.0625 5 1 C8.0394985 6.13570436 8.3099957 10.11008174 8 16 C7.67 16 7.34 16 7 16 C6.89042969 15.40832031 6.78085938 14.81664062 6.66796875 14.20703125 C5.52321186 8.50186073 4.21456745 4.21456745 0 0 Z " fill="#F09022" transform="translate(119,203)"/>
<path d="M0 0 C-1.38552202 1.01423834 -2.78394288 2.01087002 -4.1875 3 C-4.96480469 3.556875 -5.74210937 4.11375 -6.54296875 4.6875 C-9.28336637 6.151369 -10.94100837 6.26080213 -14 6 C-13.360625 5.896875 -12.72125 5.79375 -12.0625 5.6875 C-11.381875 5.460625 -10.70125 5.23375 -10 5 C-9.67 4.01 -9.34 3.02 -9 2 C-3.69230769 -1.23076923 -3.69230769 -1.23076923 0 0 Z " fill="#FBCA7E" transform="translate(302,139)"/>
<path d="M0 0 C1.43861294 0.08746284 2.87597508 0.19565348 4.3125 0.3125 C5.11300781 0.37050781 5.91351563 0.42851562 6.73828125 0.48828125 C9.41986625 1.09499565 10.3353373 1.84362154 12 4 C12.33 4.99 12.66 5.98 13 7 C8.50202887 5.31326082 4.27113698 3.18326108 0 1 C0 0.67 0 0.34 0 0 Z " fill="#FBC16C" transform="translate(261,132)"/>
<path d="M0 0 C2.27130656 0.30904171 4.54203305 0.62234907 6.8125 0.9375 C8.07707031 1.11152344 9.34164062 1.28554687 10.64453125 1.46484375 C14 2 14 2 17 3 C16.67 3.66 16.34 4.32 16 5 C10.53135543 3.98408579 5.23609987 2.92908943 0 1 C0 0.67 0 0.34 0 0 Z " fill="#ED860D" transform="translate(228,125)"/>
<path d="M0 0 C0.66 0 1.32 0 2 0 C1.44854729 5.23880078 0.57077907 9.97350697 -1 15 C-1.33 15 -1.66 15 -2 15 C-2.21755666 9.5610835 -2.10428384 5.12919186 0 0 Z " fill="#EB921E" transform="translate(271,235)"/>
<path d="M0 0 C0.515625 0.309375 1.03125 0.61875 1.5625 0.9375 C4.66665423 2.29059287 7.65115007 2.61359424 11 3 C11 3.33 11 3.66 11 4 C9.02 4.33 7.04 4.66 5 5 C5 5.66 5 6.32 5 7 C3.0625 6.3125 3.0625 6.3125 1 5 C0.25 2.375 0.25 2.375 0 0 Z " fill="#8C3B07" transform="translate(137,226)"/>
<path d="M0 0 C0.33 0 0.66 0 1 0 C1.49940808 6.11774896 0.24900602 9.02495953 -3 14 C-3.66 14 -4.32 14 -5 14 C-4.37257439 9.35705045 -4.37257439 9.35705045 -2.5 7.5625 C-0.32590827 5.29782111 -0.33810251 3.04292263 0 0 Z " fill="#862F02" transform="translate(220,213)"/>
<path d="M0 0 C0.99 0 1.98 0 3 0 C3 0.66 3 1.32 3 2 C4.45833358 3.62514468 4.45833358 3.62514468 6 5 C4.02 5 2.04 5 0 5 C-0.33 6.98 -0.66 8.96 -1 11 C-1.33 11 -1.66 11 -2 11 C-2.05399736 9.54207116 -2.09279177 8.08357288 -2.125 6.625 C-2.15980469 5.40683594 -2.15980469 5.40683594 -2.1953125 4.1640625 C-2 2 -2 2 0 0 Z " fill="#8F3B05" transform="translate(97,209)"/>
<path d="M0 0 C2.64 0 5.28 0 8 0 C8 0.66 8 1.32 8 2 C9.11375 1.95875 10.2275 1.9175 11.375 1.875 C15 2 15 2 17 4 C13.1280483 5.29065057 10.55767399 4.22324098 6.8125 3.0625 C5.83120117 2.76956055 5.83120117 2.76956055 4.83007812 2.47070312 C3.21772593 1.98817437 1.60853711 1.49509795 0 1 C0 0.67 0 0.34 0 0 Z " fill="#FCDAA1" transform="translate(231,37)"/>
<path d="M0 0 C0.66 0.33 1.32 0.66 2 1 C0.92598892 3.91517292 0.22189824 5.77810176 -2 8 C-4.68839385 8.26991906 -7.29141936 8.08737357 -10 8 C-10.33 7.01 -10.66 6.02 -11 5 C-8.36 5.66 -5.72 6.32 -3 7 C-3 6.34 -3 5.68 -3 5 C-2.34 5 -1.68 5 -1 5 C-0.67 3.35 -0.34 1.7 0 0 Z " fill="#E79735" transform="translate(151,221)"/>
<path d="M0 0 C0.66 0 1.32 0 2 0 C1.125 6.75 1.125 6.75 0 9 C-2.0625 9.625 -2.0625 9.625 -4 10 C-3.29445932 6.33118845 -1.72264494 3.29549466 0 0 Z " fill="#75250B" transform="translate(121,216)"/>
<path d="M0 0 C0.33 1.32 0.66 2.64 1 4 C0.34 4 -0.32 4 -1 4 C-1.2475 4.639375 -1.495 5.27875 -1.75 5.9375 C-3 8 -3 8 -5.125 8.75 C-6.053125 8.87375 -6.053125 8.87375 -7 9 C-5.03681826 5.46627288 -2.95929119 2.75520215 0 0 Z " fill="#FAE0A6" transform="translate(30,66)"/>
<path d="M0 0 C1.98 0 3.96 0 6 0 C5.67 1.32 5.34 2.64 5 4 C2.36 4 -0.28 4 -3 4 C-3.33 3.34 -3.66 2.68 -4 2 C-2.68 2 -1.36 2 0 2 C0 1.34 0 0.68 0 0 Z " fill="#7E2903" transform="translate(204,227)"/>
<path d="M0 0 C-0.99 0 -1.98 0 -3 0 C-3 0.99 -3 1.98 -3 3 C-6 5.1875 -6 5.1875 -9 7 C-9.33 6.01 -9.66 5.02 -10 4 C-8.68 3.34 -7.36 2.68 -6 2 C-6 1.34 -6 0.68 -6 0 C-3.50907189 -1.24546405 -2.58919267 -0.7767578 0 0 Z " fill="#9F4506" transform="translate(204,201)"/>
<path d="M0 0 C-1.06541016 0.30744141 -1.06541016 0.30744141 -2.15234375 0.62109375 C-3.53099609 1.02521484 -3.53099609 1.02521484 -4.9375 1.4375 C-6.31228516 1.83775391 -6.31228516 1.83775391 -7.71484375 2.24609375 C-9.9402493 2.79026051 -9.9402493 2.79026051 -11 4 C-12.99958364 4.04080783 -15.00045254 4.04254356 -17 4 C-14.23719462 2.15812975 -12.19292174 1.27751723 -9.0625 0.3125 C-7.78052734 -0.09548828 -7.78052734 -0.09548828 -6.47265625 -0.51171875 C-3.89489426 -1.02075548 -2.45550663 -0.84888744 0 0 Z " fill="#FCE0A9" transform="translate(95,113)"/>
<path d="M0 0 C4.95696581 1.23924145 7.11658466 2.78577758 10 7 C8.35 6.67 6.7 6.34 5 6 C5 5.34 5 4.68 5 4 C4.360625 3.896875 3.72125 3.79375 3.0625 3.6875 C2.381875 3.460625 1.70125 3.23375 1 3 C0.67 2.01 0.34 1.02 0 0 Z " fill="#FAD696" transform="translate(272,54)"/>
<path d="M0 0 C3.63 0.33 7.26 0.66 11 1 C11 1.66 11 2.32 11 3 C7.7 3 4.4 3 1 3 C0.67 2.01 0.34 1.02 0 0 Z " fill="#F59919" transform="translate(138,233)"/>
<path d="M0 0 C2.12038635 2.61514317 4.13091744 5.19637616 6 8 C6.99 8.33 7.98 8.66 9 9 C9 9.66 9 10.32 9 11 C7.35 11 5.7 11 4 11 C4 9.68 4 8.36 4 7 C3.01 6.67 2.02 6.34 1 6 C0.67 4.02 0.34 2.04 0 0 Z " fill="#F4DEA8" transform="translate(12,128)"/>
<path d="M0 0 C0.99 0 1.98 0 3 0 C3.33 0.99 3.66 1.98 4 3 C0.375 6 0.375 6 -3 6 C-1.125 1.125 -1.125 1.125 0 0 Z " fill="#FCE9B3" transform="translate(22,75)"/>
<path d="M0 0 C1.32 0 2.64 0 4 0 C4.33 1.32 4.66 2.64 5 4 C3.02 4 1.04 4 -1 4 C-1 1 -1 1 0 0 Z " fill="#FA940E" transform="translate(136,221)"/>
<path d="M0 0 C0.66 0.33 1.32 0.66 2 1 C1.56802365 5.7517398 0.67230705 7.92000054 -3 11 C-3.66 10.01 -4.32 9.02 -5 8 C-3.68 8 -2.36 8 -1 8 C-0.67 5.36 -0.34 2.72 0 0 Z " fill="#8B3202" transform="translate(160,211)"/>
<path d="M0 0 C0 0.33 0 0.66 0 1 C-1.093125 1.0825 -2.18625 1.165 -3.3125 1.25 C-7.03276664 1.63689209 -7.03276664 1.63689209 -8.9375 4.0625 C-9.288125 4.701875 -9.63875 5.34125 -10 6 C-10.99 5.67 -11.98 5.34 -13 5 C-8.7797731 -0.27528362 -6.38501231 -0.54110274 0 0 Z " fill="#F39420" transform="translate(159,207)"/>
<path d="M0 0 C2.05078125 0.03255208 4.1015625 0.06510417 6.15234375 0.09765625 C3.16587606 2.08863471 0.55547113 3.03890551 -2.84765625 4.09765625 C-2.84765625 0.15051037 -2.84765625 0.15051037 0 0 Z " fill="#FDF9EB" transform="translate(60.84765625,46.90234375)"/>
<path d="M0 0 C2.02408755 0.09002398 4.04544287 0.24641038 6.0625 0.4375 C7.71958984 0.59025391 7.71958984 0.59025391 9.41015625 0.74609375 C10.26480469 0.82988281 11.11945313 0.91367187 12 1 C12 1.33 12 1.66 12 2 C10.72125 2.144375 9.4425 2.28875 8.125 2.4375 C5.74307106 2.70642746 4.15547309 2.92226346 2 4 C2 3.34 2 2.68 2 2 C1.01 1.67 0.02 1.34 -1 1 C-0.67 0.67 -0.34 0.34 0 0 Z " fill="#ED820C" transform="translate(79,293)"/>
<path d="M0 0 C0.99 0 1.98 0 3 0 C1.70700306 2.88437779 0.34058637 4.87219421 -2 7 C-2.66 6.67 -3.32 6.34 -4 6 C-3.34 4.68 -2.68 3.36 -2 2 C-1.34 2 -0.68 2 0 2 C0 1.34 0 0.68 0 0 Z " fill="#F99310" transform="translate(221,222)"/>
<path d="M0 0 C0.99 0 1.98 0 3 0 C2.34 1.32 1.68 2.64 1 4 C0.34 4 -0.32 4 -1 4 C-1 5.65 -1 7.3 -1 9 C-1.33 9 -1.66 9 -2 9 C-2.125 5.625 -2.125 5.625 -2 2 C-1.34 1.34 -0.68 0.68 0 0 Z " fill="#8F3601" transform="translate(151,209)"/>
<path d="M0 0 C3.3 0 6.6 0 10 0 C10.33 0.99 10.66 1.98 11 3 C10.01 3.495 10.01 3.495 9 4 C8.01 3.34 7.02 2.68 6 2 C4.0103005 1.60986284 2.00980131 1.26797351 0 1 C0 0.67 0 0.34 0 0 Z " fill="#DE831D" transform="translate(152,208)"/>
<path d="M0 0 C3.33523252 1.38009621 5.18607951 2.84950652 7 6 C6.67 6.99 6.34 7.98 6 9 C4.5 7.6875 4.5 7.6875 3 6 C3 5.01 3 4.02 3 3 C2.01 2.67 1.02 2.34 0 2 C0 1.34 0 0.68 0 0 Z " fill="#9C4105" transform="translate(214,204)"/>
<path d="M0 0 C-5.05857527 2.72384822 -9.28978955 4.67947366 -15 3 C-15 2.67 -15 2.34 -15 2 C-13.43883181 1.66048381 -11.87598662 1.32867456 -10.3125 1 C-9.44238281 0.814375 -8.57226562 0.62875 -7.67578125 0.4375 C-5.06287036 0.01027953 -2.64186962 -0.07616201 0 0 Z " fill="#F4D49B" transform="translate(114,109)"/>
<path d="M0 0 C1.5625 1.25 1.5625 1.25 3 3 C2.6875 5.1875 2.6875 5.1875 2 7 C1.01 6.67 0.02 6.34 -1 6 C-0.67 4.02 -0.34 2.04 0 0 Z " fill="#F6940C" transform="translate(148,219)"/>
<path d="M0 0 C0.66 0.33 1.32 0.66 2 1 C2.4140625 3.50390625 2.4140625 3.50390625 2.625 6.5625 C2.69976562 7.57441406 2.77453125 8.58632812 2.8515625 9.62890625 C2.90054687 10.41136719 2.94953125 11.19382812 3 12 C1.62935727 9.45215202 0.95726879 7.72758854 0.5 4.8125 C0.335 3.884375 0.17 2.95625 0 2 C-0.66 1.67 -1.32 1.34 -2 1 C-1.34 0.67 -0.68 0.34 0 0 Z " fill="#FEDE9D" transform="translate(303,88)"/>
<path d="M0 0 C4.875 4.625 4.875 4.625 6 8 C5.01 8 4.02 8 3 8 C0 2.25 0 2.25 0 0 Z " fill="#DAA552" transform="translate(294,71)"/>
<path d="M0 0 C0.33 0 0.66 0 1 0 C1.309375 0.94875 1.61875 1.8975 1.9375 2.875 C2.87394742 5.86080408 2.87394742 5.86080408 4 8 C3.01 8.33 2.02 8.66 1 9 C-0.61949011 6.42786866 -1.04408751 5.32330841 -0.625 2.25 C-0.41875 1.5075 -0.2125 0.765 0 0 Z " fill="#F29B12" transform="translate(57,275)"/>
<path d="M0 0 C0.763125 0.61875 1.52625 1.2375 2.3125 1.875 C4.99625809 4.05597052 4.99625809 4.05597052 8 6 C6.35 6 4.7 6 3 6 C3 5.34 3 4.68 3 4 C2.01 4 1.02 4 0 4 C0 2.68 0 1.36 0 0 Z " fill="#E07F1F" transform="translate(193,225)"/>
<path d="M0 0 C3.81538462 2.46153846 3.81538462 2.46153846 4.75 5.1875 C4.8325 5.785625 4.915 6.38375 5 7 C4.01 7.33 3.02 7.66 2 8 C0.23537317 4.91190305 0 3.76687864 0 0 Z " fill="#883810" transform="translate(213,204)"/>
<path d="M0 0 C0.33 0.66 0.66 1.32 1 2 C1.66 2.33 2.32 2.66 3 3 C0.03 5.475 0.03 5.475 -3 8 C-2.45276317 4.62537285 -1.9451 2.91765 0 0 Z " fill="#EC8916" transform="translate(195,200)"/>
<path d="M0 0 C-6.4 3.07692308 -6.4 3.07692308 -9.4375 2.6875 C-9.953125 2.460625 -10.46875 2.23375 -11 2 C-3.57142857 -1.57142857 -3.57142857 -1.57142857 0 0 Z " fill="#FBE1A9" transform="translate(78,118)"/>
<path d="" fill="#FFFF00" transform="translate(0,0)"/>
<path d="" fill="#FFFF00" transform="translate(0,0)"/>
<path d="" fill="#FFFF00" transform="translate(0,0)"/>
<path d="" fill="#FFFF00" transform="translate(0,0)"/>
<path d="" fill="#FFFF00" transform="translate(0,0)"/>
<path d="" fill="#FFFF00" transform="translate(0,0)"/>
<path d="" fill="#FFFF00" transform="translate(0,0)"/>
<path d="" fill="#FFFF00" transform="translate(0,0)"/>
<path d="" fill="#FFFF00" transform="translate(0,0)"/>
<path d="" fill="#FFFF00" transform="translate(0,0)"/>
<path d="" fill="#FFFF00" transform="translate(0,0)"/>
<path d="" fill="#FFFF00" transform="translate(0,0)"/>
</svg>
